<?xml version="1.0" standalone="no"?>
<!DOCTYPE svg PUBLIC "-//W3C//DTD SVG 20010904//EN"
 "http://www.w3.org/TR/2001/REC-SVG-20010904/DTD/svg10.dtd">
<svg version="1.0" xmlns="http://www.w3.org/2000/svg"
 width="235.000000pt" height="235.000000pt" viewBox="0 0 235.000000 235.000000"
 preserveAspectRatio="xMidYMid meet">
<metadata>
Created by potrace 1.14, written by Peter Selinger 2001-2017
</metadata>
<g transform="translate(0.000000,235.000000) scale(0.100000,-0.100000)"
fill="#000000" stroke="none">
<path d="M995 2329 c-483 -70 -886 -465 -971 -954 -24 -137 -15 -368 20 -500
105 -399 433 -726 833 -832 130 -34 362 -43 498 -19 630 109 1058 715 950
1342 -23 132 -50 212 -110 332 -66 131 -127 213 -237 318 -175 168 -381 272
-613 309 -97 16 -274 18 -370 4z m237 -202 c12 -19 9 -122 -4 -135 -17 -17
-64 -15 -82 4 -25 24 -21 109 5 135 22 22 66 20 81 -4z m-158 -3 c24 -23 20
-27 -19 -20 -31 6 -35 4 -35 -14 0 -14 7 -20 21 -20 36 0 59 -19 59 -48 0 -16
-5 -33 -12 -40 -22 -22 -88 -12 -88 14 0 17 22 18 37 3 6 -6 16 -8 23 -4 20
13 6 37 -30 49 -28 9 -36 17 -38 41 -6 47 48 73 82 39z m268 6 c49 -14 65 -42
43 -76 -11 -18 -24 -24 -50 -24 -30 0 -35 -3 -35 -24 0 -24 -16 -43 -27 -32
-7 6 18 166 26 166 3 0 23 -5 43 -10z m-389 -89 c16 -49 16 -55 2 -78 -13 -19
-23 -23 -48 -21 -35 3 -54 31 -64 93 -8 47 10 67 56 63 34 -3 37 -6 54 -57z
m513 24 c-4 -19 -5 -35 -2 -35 2 0 11 -3 19 -6 10 -3 18 5 25 25 12 33 32 42
31 14 -1 -31 -43 -136 -56 -141 -16 -5 -17 22 -3 48 8 15 6 21 -9 30 -24 12
-31 13 -31 1 0 -5 -5 -22 -10 -37 -8 -19 -14 -24 -21 -17 -17 17 30 153 52
153 7 0 9 -13 5 -35z m144 -61 l0 -46 30 26 c17 14 37 23 45 20 8 -4 15 -7 15
-8 0 -2 -21 -17 -46 -36 -25 -18 -54 -45 -63 -61 -12 -19 -21 -25 -30 -19 -11
6 -11 12 3 31 10 14 16 43 16 75 0 28 3 54 7 57 16 16 23 4 23 -39z m-865 -34
c16 -33 31 -60 34 -60 3 1 17 7 31 15 31 18 40 18 40 2 0 -7 -19 -22 -43 -34
l-44 -21 -36 73 c-32 66 -36 85 -17 85 3 0 19 -27 35 -60z m-95 2 c0 -4 -5
-13 -11 -19 -8 -8 -4 -22 17 -52 23 -33 34 -40 52 -36 34 8 27 -17 -14 -43
-37 -24 -64 -21 -43 4 17 20 -37 97 -63 91 -32 -9 -29 10 4 37 33 26 58 33 58
18z m-30 -206 c-6 -6 -19 -1 -35 14 -23 22 -27 23 -42 8 -15 -15 -14 -18 13
-42 26 -22 27 -25 11 -32 -14 -5 -32 6 -73 47 -35 35 -50 57 -44 63 6 6 18 2
33 -12 22 -20 24 -21 40 -5 16 16 15 18 -4 39 -12 13 -18 28 -14 34 5 8 27 -8
66 -46 38 -38 55 -62 49 -68z m1290 24 c0 -22 -44 -55 -60 -45 -6 4 -17 -9
-26 -31 -11 -26 -18 -34 -26 -26 -8 8 -7 19 2 41 18 44 9 56 -22 32 -30 -24
-38 -26 -38 -8 0 6 26 35 57 64 l58 52 28 -29 c15 -17 27 -39 27 -50z m-577
52 c7 2 25 -7 40 -19 24 -19 27 -25 17 -43 -16 -30 -9 -42 43 -69 44 -23 45
-24 41 -68 -1 -25 -7 -49 -13 -52 -16 -10 1 -27 40 -40 40 -13 78 -50 103 -98
l17 -33 -31 0 c-24 0 -43 13 -89 60 -42 43 -82 71 -137 97 -77 37 -82 38 -193
38 -63 0 -108 1 -100 3 8 1 30 32 49 67 23 44 40 63 49 60 14 -6 111 86 111
105 0 8 6 8 20 0 11 -6 26 -10 33 -8z m-875 -94 c16 -16 15 -61 0 -76 -10 -10
-7 -17 16 -36 21 -16 26 -25 17 -30 -12 -8 -141 71 -141 86 0 3 12 20 26 37
27 32 61 40 82 19z m1528 -38 c19 -29 24 -44 17 -51 -8 -8 -16 -2 -29 19 -15
26 -21 29 -36 21 -18 -10 -18 -12 -3 -36 11 -16 13 -29 7 -35 -6 -6 -15 1 -26
17 -14 21 -20 24 -37 15 -20 -11 -20 -11 1 -46 31 -50 0 -46 -33 5 l-26 39 67
45 c37 25 68 46 69 46 2 1 15 -17 29 -39z m-433 -40 c-3 -10 -12 -25 -21 -32
-13 -11 -12 -8 2 20 19 36 27 41 19 12z m-617 -65 c10 -9 26 -13 47 -9 26 4
22 -1 -28 -27 -33 -17 -86 -58 -117 -90 -40 -41 -65 -59 -83 -59 -14 0 -25 2
-25 5 0 2 11 29 24 58 17 39 31 56 48 60 14 4 44 22 69 42 51 41 46 39 65 20z
m-230 -15 c7 0 19 -9 26 -20 7 -11 18 -20 25 -20 7 0 2 -23 -16 -62 -27 -62
-28 -66 -26 -248 1 -165 3 -191 23 -240 27 -68 28 -105 2 -170 -11 -28 -20
-66 -20 -85 0 -19 -4 -36 -8 -39 -11 -7 -136 124 -156 163 -9 16 -16 40 -16
52 0 13 -9 42 -20 65 -32 64 -46 155 -33 206 19 72 93 278 118 329 25 49 77
99 83 80 2 -6 10 -11 18 -11z m1358 -26 c4 -9 5 -18 4 -19 -2 -1 -29 -22 -61
-48 -33 -26 -63 -47 -68 -47 -15 0 -10 28 7 38 24 13 0 54 -28 50 -39 -6 -31
21 9 27 21 4 45 8 53 10 43 9 78 4 84 -11z m-1706 -100 c35 -5 52 -11 52 -21
0 -10 -6 -12 -20 -8 -30 9 -46 -35 -20 -53 10 -8 16 -20 14 -27 -4 -10 -24 -3
-75 28 -51 32 -68 48 -69 65 0 25 19 27 118 16z m1752 -17 c0 -8 -25 -19 -62
-28 l-63 -15 3 -37 c2 -20 -2 -37 -7 -37 -14 0 -19 11 -27 56 l-6 40 64 16
c81 20 98 21 98 5z m-580 -30 l85 -12 -2 -30 c-6 -88 -16 -147 -26 -150 -7 -3
-63 -11 -126 -19 -112 -14 -116 -14 -155 6 -60 31 -217 31 -269 0 -37 -21 -38
-21 -159 -6 -68 9 -126 19 -131 23 -9 9 -25 171 -18 176 3 1 56 8 116 14 61 6
124 13 140 15 56 8 459 -5 545 -17z m-1294 -92 c-7 -18 1 -21 67 -29 42 -5 47
-4 47 14 0 11 5 17 13 15 18 -7 10 -95 -9 -95 -8 0 -14 7 -14 15 0 14 -9 18
-77 29 -28 5 -33 2 -33 -14 0 -12 -7 -20 -16 -20 -13 0 -15 7 -10 31 3 17 6
40 6 50 0 11 7 19 16 19 10 0 14 -5 10 -15z m1904 -34 c0 -10 3 -33 6 -50 5
-24 3 -31 -10 -31 -10 0 -16 8 -16 21 0 17 -4 20 -22 15 -13 -3 -38 -6 -55 -6
-26 0 -33 -4 -33 -20 0 -11 -6 -20 -14 -20 -10 0 -15 15 -18 50 -2 35 1 50 10
50 6 0 12 -7 12 -15 0 -11 12 -15 48 -15 52 0 78 12 68 29 -4 6 0 11 8 11 9 0
16 -8 16 -19z m-837 -94 c47 -22 48 -23 43 -61 -2 -21 -9 -43 -14 -48 -13 -13
-301 -13 -314 0 -5 5 -12 27 -15 48 -5 38 -3 40 39 61 23 13 57 25 73 27 56 7
140 -4 188 -27z m-945 -18 c-2 -16 -18 -28 -58 -43 l-55 -21 63 -3 c34 -2 62
-7 62 -12 0 -6 -28 -10 -62 -10 -35 0 -73 -3 -85 -6 -19 -5 -23 -2 -23 15 0
13 9 25 23 30 12 5 38 16 57 25 l35 16 -58 -3 c-39 -1 -57 2 -57 10 0 8 24 13
73 16 39 1 76 4 80 5 5 1 7 -8 5 -19z m1792 -31 c0 -72 -24 -128 -32 -75 -3
20 -9 22 -70 25 -54 2 -68 6 -68 19 0 13 11 15 70 11 68 -5 70 -5 70 18 0 15
6 24 15 24 9 0 15 -9 15 -22z m-1135 -87 c88 -16 273 -13 356 4 40 9 74 13 77
10 3 -3 0 -15 -5 -28 -24 -51 -298 -77 -453 -43 -82 18 -84 20 -95 55 -7 23
-5 24 26 18 19 -3 61 -11 94 -16z m-641 -18 c17 -61 17 -83 2 -83 -9 0 -16 7
-16 16 0 14 -7 15 -37 10 -21 -3 -44 -6 -51 -6 -7 0 -17 -12 -23 -27 -12 -33
-25 -21 -34 35 -7 43 5 58 23 27 13 -24 112 -1 112 26 0 24 17 25 24 2z m475
-9 c12 -15 22 -48 26 -82 13 -125 18 -129 171 -113 60 6 158 19 217 28 98 14
110 15 124 0 10 -10 13 -24 10 -40 -8 -28 -44 -41 -177 -61 -99 -15 -116 -22
-77 -31 14 -4 28 -13 31 -20 7 -18 -4 -55 -16 -55 -6 0 -8 -14 -4 -33 4 -22 1
-40 -8 -52 -8 -11 -12 -30 -9 -43 4 -18 -1 -25 -33 -38 -60 -25 -204 -31 -258
-10 -119 46 -152 166 -94 345 17 52 19 77 14 138 -4 40 -4 78 -1 83 12 20 63
11 84 -16z m1285 -38 c-3 -7 -24 -17 -47 -22 l-42 -9 33 -20 c17 -11 32 -28
32 -38 0 -15 -10 -11 -57 22 -31 23 -65 41 -75 41 -10 0 -18 7 -18 15 0 12 7
15 33 10 17 -3 50 -2 72 3 59 15 75 14 69 -2z m-526 -91 c15 -14 30 -25 34
-25 4 0 18 -9 30 -20 13 -10 31 -25 41 -32 17 -13 16 -17 -20 -62 -32 -41
-118 -115 -189 -164 -39 -26 30 10 76 40 26 17 35 21 20 8 -13 -12 -43 -33
-66 -46 -41 -24 -43 -24 -82 -9 -48 20 -138 17 -134 -4 2 -10 -4 -12 -25 -7
-15 4 -49 9 -75 13 -54 6 -66 28 -40 73 13 22 26 30 61 35 112 17 239 92 301
179 19 25 35 46 37 46 2 0 16 -11 31 -25z m-1198 -6 c21 -38 8 -62 -44 -87
-29 -14 -58 -21 -71 -18 -27 7 -47 54 -33 79 13 25 31 21 25 -6 -4 -12 -2 -29
3 -37 14 -22 94 9 98 38 3 17 -2 22 -18 22 -15 0 -20 -5 -17 -14 3 -8 0 -17
-7 -19 -16 -7 -39 50 -22 57 31 13 76 5 86 -15z m44 -98 c3 -5 -3 -20 -14 -34
-18 -23 -26 -47 -15 -47 2 0 16 5 30 12 16 7 29 8 35 2 6 -6 -16 -25 -62 -51
l-73 -42 -17 27 c-10 15 -18 37 -18 49 0 26 40 56 63 47 10 -3 22 4 32 20 18
27 30 32 39 17z m1503 -58 c34 -20 63 -43 63 -50 0 -20 -14 -16 -71 19 l-51
32 -22 -27 c-39 -49 -50 -27 -15 29 11 19 23 34 26 34 4 0 35 -17 70 -37z
m-1387 -120 c0 -15 -16 -17 -25 -3 -7 12 -25 3 -69 -34 -24 -20 -27 -27 -17
-39 9 -11 9 -17 1 -22 -7 -4 -15 -3 -19 1 -3 5 -17 21 -30 36 -25 28 -21 59 5
37 12 -10 22 -6 52 18 20 17 37 39 38 49 1 11 2 23 3 29 2 13 60 -57 61 -72z
m1304 -4 c42 -63 46 -73 33 -86 -13 -13 -23 -10 -86 21 -73 37 -94 63 -43 51
36 -8 62 16 42 40 -10 13 -8 45 3 45 2 0 25 -32 51 -71z m-1260 -142 c-29 -58
-41 -74 -51 -66 -9 9 -6 22 17 63 17 29 30 56 30 60 0 4 -23 -9 -50 -29 -31
-23 -57 -35 -67 -31 -20 8 -21 6 63 60 57 37 71 43 82 32 11 -11 7 -26 -24
-89z m1174 37 l51 -61 -29 -21 c-37 -28 -77 -29 -85 -2 -3 11 -3 25 1 31 4 8
3 9 -4 5 -18 -11 -52 13 -52 36 0 22 48 81 61 76 4 -2 30 -30 57 -64z"/>
<path d="M1167 2114 c-12 -12 -8 -91 6 -102 24 -20 38 2 35 54 -2 34 -8 50
-18 52 -9 1 -19 0 -23 -4z"/>
<path d="M1315 2089 c-9 -26 12 -41 37 -28 21 11 23 20 6 37 -18 18 -36 14
-43 -9z"/>
<path d="M873 2064 c-7 -18 13 -90 28 -99 5 -4 16 -1 24 5 16 14 11 51 -11 88
-17 26 -32 28 -41 6z"/>
<path d="M1836 1811 c-15 -16 -15 -20 -1 -31 18 -15 45 -7 45 13 0 8 -6 20
-13 26 -11 8 -18 6 -31 -8z"/>
<path d="M399 1714 c-11 -14 -10 -18 6 -30 17 -13 21 -13 32 2 25 34 -11 60
-38 28z"/>
<path d="M1998 1553 c-16 -2 -28 -11 -28 -19 0 -20 24 -17 45 6 10 11 16 19
14 19 -2 -1 -16 -4 -31 -6z"/>
<path d="M293 1424 c27 -15 47 -12 47 7 0 5 -17 9 -37 9 l-38 -1 28 -15z"/>
<path d="M990 1371 c-22 -42 -7 -101 26 -101 37 0 60 80 32 108 -18 18 -46 14
-58 -7z"/>
<path d="M1333 1368 c-19 -23 -24 -55 -13 -82 22 -60 96 1 74 61 -10 31 -44
42 -61 21z"/>
<path d="M357 733 c-10 -9 -9 -41 2 -47 4 -3 16 1 27 8 15 12 16 16 5 30 -15
17 -24 20 -34 9z"/>
<path d="M1834 598 c-4 -6 1 -17 11 -25 29 -20 37 -15 19 12 -19 29 -20 29
-30 13z"/>
<path d="M1707 533 c-15 -14 -7 -43 12 -43 26 0 36 17 21 35 -14 16 -23 19
-33 8z"/>
<path d="M1756 471 c-14 -15 -14 -20 -3 -29 10 -9 18 -9 30 1 13 10 14 15 3
29 -12 17 -14 17 -30 -1z"/>
</g>
</svg>
